<svg width="21" height="18" viewBox="0 0 21 18" fill="none" xmlns="http://www.w3.org/2000/svg">
<path fill-rule="evenodd" clip-rule="evenodd" d="M10.75 17.25C10.3459 17.25 10.0183 16.9142 10.0183 16.5L10.0183 13.7275C8.97681 13.6628 8.00034 13.4596 7.10891 13.1319L5.49032 15.438C5.25432 15.7742 4.79708 15.8507 4.46904 15.6088C4.14101 15.3669 4.0664 14.8982 4.3024 14.562L5.75044 12.4989C5.04998 12.0955 4.42561 11.6017 3.89262 11.0288L1.93085 12.5921C1.61182 12.8463 1.15212 12.7873 0.90408 12.4603C0.656042 12.1333 0.713593 11.6621 1.03263 11.4079L2.99273 9.84588C2.68562 9.34581 2.43649 8.80756 2.25099 8.23717C2.1232 7.84421 2.33039 7.41947 2.71376 7.28849C3.09714 7.1575 3.51151 7.36987 3.63931 7.76283C3.85042 8.41201 4.16402 9.00773 4.56823 9.53851C5.20517 10.3749 6.07441 11.0593 7.13849 11.5319C8.17032 11.9901 9.38772 12.25 10.75 12.25C12.1123 12.25 13.3297 11.9901 14.3615 11.5319C15.4256 11.0593 16.2948 10.3749 16.9318 9.53851C17.336 9.00773 17.6496 8.41202 17.8607 7.76283C17.9885 7.36987 18.4029 7.1575 18.7862 7.28849C19.1696 7.41947 19.3768 7.84421 19.249 8.23717C19.0635 8.80757 18.8144 9.34581 18.5073 9.84588L20.4674 11.4079C20.7864 11.6621 20.844 12.1333 20.5959 12.4603C20.3479 12.7874 19.8882 12.8463 19.5691 12.5921L17.6074 11.0288C17.0513 11.6266 16.3957 12.1382 15.658 12.5509L16.7598 14.6439C16.9517 15.0084 16.8189 15.4634 16.4633 15.66C16.1077 15.8567 15.6638 15.7207 15.4719 15.3561L14.3155 13.1594C13.4445 13.471 12.4938 13.6646 11.4817 13.7275L11.4817 16.5C11.4817 16.9142 11.1541 17.25 10.75 17.25Z" fill="#313942"/>
<path fill-rule="evenodd" clip-rule="evenodd" d="M10.7501 1.75C9.38779 1.75 8.17039 2.00987 7.13855 2.46814C6.07447 2.94073 5.20524 3.62509 4.56829 4.46149C4.31964 4.788 3.85983 4.84608 3.54127 4.59121C3.22272 4.33634 3.16606 3.86503 3.41471 3.53851C4.21309 2.49014 5.2848 1.6567 6.55672 1.09179C7.78896 0.544509 9.20674 0.250001 10.7501 0.250001C12.2934 0.250002 13.7112 0.54451 14.9434 1.09179L14.6525 1.77997L14.9434 1.09179C16.2153 1.6567 17.287 2.49014 18.0854 3.53852C18.3341 3.86503 18.2774 4.33634 17.9589 4.59121C17.6403 4.84608 17.1805 4.788 16.9318 4.46149C16.2949 3.62509 15.4257 2.94074 14.3616 2.46814C13.3297 2.00987 12.1123 1.75 10.7501 1.75Z" fill="#313942"/>
</svg>
