<svg width="21" height="18" viewBox="0 0 21 18" fill="none" xmlns="http://www.w3.org/2000/svg">
<path fill-rule="evenodd" clip-rule="evenodd" d="M10.25 0.25C10.6541 0.25 10.9817 0.585786 10.9817 1V3.7725C12.0232 3.83719 12.9997 4.04036 13.8911 4.36806L15.5097 2.062C15.7457 1.72576 16.2029 1.64928 16.531 1.89119C16.859 2.13309 16.9336 2.60176 16.6976 2.938L15.2496 5.00109C15.95 5.40449 16.5744 5.89827 17.1074 6.47125L19.0692 4.9079C19.3882 4.65366 19.8479 4.71265 20.0959 5.03966C20.344 5.36667 20.2864 5.83786 19.9674 6.0921L18.0073 7.65412C18.3144 8.15419 18.5635 8.69243 18.749 9.26283C18.8768 9.65579 18.6696 10.0805 18.2862 10.2115C17.9029 10.3425 17.4885 10.1301 17.3607 9.73717C17.1496 9.08799 16.836 8.49227 16.4318 7.96149C15.7948 7.12509 14.9256 6.44073 13.8615 5.96814C12.8297 5.50986 11.6123 5.25 10.25 5.25C8.88772 5.25 7.67032 5.50986 6.63849 5.96814C5.57441 6.44073 4.70517 7.12509 4.06823 7.96149C3.66402 8.49227 3.35042 9.08798 3.1393 9.73717C3.01151 10.1301 2.59713 10.3425 2.21376 10.2115C1.83039 10.0805 1.6232 9.65579 1.75099 9.26283C1.93649 8.69243 2.18562 8.15419 2.49273 7.65412L0.532627 6.0921C0.213594 5.83786 0.156041 5.36667 0.404079 5.03966C0.652117 4.71265 1.11182 4.65366 1.43085 4.9079L3.39262 6.47125C3.94872 5.87343 4.60429 5.36182 5.34199 4.94912L4.24022 2.85614C4.04832 2.49161 4.18107 2.03665 4.53671 1.83995C4.89235 1.64326 5.33622 1.77932 5.52811 2.14386L6.68452 4.34064C7.55546 4.02901 8.50617 3.83537 9.5183 3.7725V1C9.5183 0.585786 9.84589 0.25 10.25 0.25Z" fill="#313942"/>
<path fill-rule="evenodd" clip-rule="evenodd" d="M10.2499 15.75C11.6122 15.75 12.8296 15.4901 13.8614 15.0319C14.9255 14.5593 15.7948 13.8749 16.4317 13.0385C16.6804 12.712 17.1402 12.6539 17.4587 12.9088C17.7773 13.1637 17.8339 13.635 17.5853 13.9615C16.7869 15.0099 15.7152 15.8433 14.4433 16.4082C13.211 16.9555 11.7933 17.25 10.2499 17.25C8.70661 17.25 7.28884 16.9555 6.0566 16.4082L6.34751 15.72L6.0566 16.4082C4.78467 15.8433 3.71296 15.0099 2.91459 13.9615C2.66593 13.635 2.72259 13.1637 3.04115 12.9088C3.3597 12.6539 3.81951 12.712 4.06816 13.0385C4.70511 13.8749 5.57434 14.5593 6.63842 15.0319C7.67026 15.4901 8.88766 15.75 10.2499 15.75Z" fill="#313942"/>
<path fill-rule="evenodd" clip-rule="evenodd" d="M10.2501 12C11.0583 12 11.7135 11.3284 11.7135 10.5C11.7135 9.67157 11.0583 9 10.2501 9C9.44184 9 8.78665 9.67157 8.78665 10.5C8.78665 11.3284 9.44184 12 10.2501 12ZM10.2501 13.5C11.8665 13.5 13.1769 12.1569 13.1769 10.5C13.1769 8.84315 11.8665 7.5 10.2501 7.5C8.63362 7.5 7.32324 8.84315 7.32324 10.5C7.32324 12.1569 8.63362 13.5 10.2501 13.5Z" fill="#313942"/>
</svg>
