<svg width="10" height="8" viewBox="0 0 10 8" fill="none" xmlns="http://www.w3.org/2000/svg">
<path d="M0.115385 4.23077C0.0384615 4.15385 0 4.03846 0 3.96154C0 3.88462 0.0384615 3.76923 0.115385 3.69231L0.653846 3.15385C0.807692 3 1.03846 3 1.19231 3.15385L1.23077 3.19231L3.34615 5.46154C3.42308 5.53846 3.53846 5.53846 3.61538 5.46154L8.76923 0.115385H8.80769C8.96154 -0.0384615 9.19231 -0.0384615 9.34615 0.115385L9.88462 0.653846C10.0385 0.807692 10.0385 1.03846 9.88462 1.19231L3.73077 7.57692C3.65385 7.65385 3.57692 7.69231 3.46154 7.69231C3.34615 7.69231 3.26923 7.65385 3.19231 7.57692L0.192308 4.34615L0.115385 4.23077Z" fill="white"/>
</svg>
