<svg width="20" height="20" viewBox="0 0 20 20" fill="none" xmlns="http://www.w3.org/2000/svg">
<path d="M7.12662 6.07347L9.06174 4.13835V14.375C9.06174 14.6237 9.16051 14.8621 9.33633 15.0379C9.51214 15.2138 9.7506 15.3125 9.99924 15.3125C10.2479 15.3125 10.4863 15.2138 10.6621 15.0379C10.838 14.8621 10.9367 14.6237 10.9367 14.375V4.13835L12.8718 6.07347C12.9588 6.16091 13.0622 6.23034 13.176 6.27777C13.2899 6.3252 13.412 6.3497 13.5353 6.34986C13.6586 6.35003 13.7808 6.32586 13.8947 6.27874C14.0087 6.23163 14.1123 6.16248 14.1995 6.07528C14.2867 5.98807 14.3558 5.88451 14.4029 5.77054C14.4501 5.65657 14.4742 5.53442 14.4741 5.41109C14.4739 5.28776 14.4494 5.16568 14.402 5.05183C14.3545 4.93799 14.2851 4.83462 14.1977 4.74765L10.6622 1.2121C10.5751 1.12504 10.4718 1.05598 10.358 1.00887C10.2443 0.961751 10.1224 0.9375 9.99924 0.9375C9.87612 0.9375 9.75421 0.961751 9.64046 1.00887C9.52671 1.05598 9.42336 1.12504 9.33631 1.2121L5.80081 4.74765C5.71336 4.83462 5.64394 4.93799 5.59651 5.05183C5.54908 5.16568 5.52458 5.28776 5.52441 5.41109C5.52425 5.53442 5.54841 5.65657 5.59553 5.77054C5.64265 5.88451 5.71179 5.98807 5.799 6.07528C5.88621 6.16248 5.98976 6.23163 6.10374 6.27874C6.21771 6.32586 6.33986 6.35003 6.46319 6.34986C6.58652 6.3497 6.7086 6.3252 6.82244 6.27777C6.93629 6.23034 7.03966 6.16091 7.12662 6.07347Z" fill="#00978E"/>
<path d="M18.125 9.0625C17.8764 9.0625 17.6379 9.16127 17.4621 9.33709C17.2863 9.5129 17.1875 9.75136 17.1875 10V17.1875H2.8125V10C2.8125 9.75136 2.71373 9.5129 2.53791 9.33709C2.3621 9.16127 2.12364 9.0625 1.875 9.0625C1.62636 9.0625 1.3879 9.16127 1.21209 9.33709C1.03627 9.5129 0.9375 9.75136 0.9375 10V17.5C0.9375 17.9144 1.10212 18.3118 1.39515 18.6049C1.68817 18.8979 2.0856 19.0625 2.5 19.0625H17.5C17.9144 19.0625 18.3118 18.8979 18.6049 18.6049C18.8979 18.3118 19.0625 17.9144 19.0625 17.5V10C19.0625 9.75136 18.9637 9.5129 18.7879 9.33709C18.6121 9.16127 18.3736 9.0625 18.125 9.0625Z" fill="#00978E"/>
</svg>
