<?xml version="1.0"?>
<svg xmlns="http://www.w3.org/2000/svg" xmlns:xlink="http://www.w3.org/1999/xlink" xmlns:svgjs="http://svgjs.com/svgjs" version="1.1" width="512" height="512" x="0" y="0" viewBox="0 0 512 512" style="enable-background:new 0 0 512 512" xml:space="preserve" class=""><g><path xmlns="http://www.w3.org/2000/svg" d="M312,480H456V352H312Zm72-96a24,24,0,0,1,8,46.624V440a8,8,0,0,1-16,0v-9.376A24,24,0,0,1,384,384Z" fill="#38434e" data-original="#000000" style="" class=""/><circle xmlns="http://www.w3.org/2000/svg" cx="224" cy="112" r="80" fill="#38434e" data-original="#000000" style="" class=""/><circle xmlns="http://www.w3.org/2000/svg" cx="384" cy="408" r="8" fill="#38434e" data-original="#000000" style="" class=""/><path xmlns="http://www.w3.org/2000/svg" d="M392,256H376a39.877,39.877,0,0,0-28.942,12.433,162.771,162.771,0,0,0-51.741-43.016A152.321,152.321,0,0,0,224,208c-45.522,0-87.578,19.485-118.42,54.865-31.063,35.633-48.567,85.3-49.538,140.291C74.407,412.417,149.812,448,224,448a320.723,320.723,0,0,0,72-8.593V344a8,8,0,0,1,8-8h77.888a202.609,202.609,0,0,0-25.144-54.308A23.977,23.977,0,0,1,376,272h16a24.027,24.027,0,0,1,24,24,8,8,0,0,0,16,0A40.045,40.045,0,0,0,392,256Z" fill="#38434e" data-original="#000000" style="" class=""/></g></svg>
