<svg
   xmlns:osb="http://www.openswatchbook.org/uri/2009/osb"
   xmlns:dc="http://purl.org/dc/elements/1.1/"
   xmlns:cc="http://creativecommons.org/ns#"
   xmlns:rdf="http://www.w3.org/1999/02/22-rdf-syntax-ns#"
   xmlns:svg="http://www.w3.org/2000/svg"
   xmlns="http://www.w3.org/2000/svg"
   xmlns:sodipodi="http://sodipodi.sourceforge.net/DTD/sodipodi-0.dtd"
   xmlns:inkscape="http://www.inkscape.org/namespaces/inkscape"
   width="199.90042mm"
   height="169.78395mm"
   viewBox="0 0 199.90042 169.78395"
   version="1.1"
   id="svg8"
   inkscape:version="0.92.5 (2060ec1f9f, 2020-04-08)"
   sodipodi:docname="drawing.svg">
  <defs
     id="defs2">
    <linearGradient
       id="linearGradient866"
       osb:paint="solid">
      <stop
         style="stop-color:#000000;stop-opacity:1;"
         offset="0"
         id="stop864" />
    </linearGradient>
  </defs>
  <sodipodi:namedview
     id="base"
     pagecolor="#ffffff"
     bordercolor="#666666"
     borderopacity="1.0"
     inkscape:pageopacity="0.0"
     inkscape:pageshadow="2"
     inkscape:zoom="0.49497475"
     inkscape:cx="778.19976"
     inkscape:cy="11.509051"
     inkscape:document-units="mm"
     inkscape:current-layer="layer1"
     showgrid="false"
     inkscape:window-width="1920"
     inkscape:window-height="1043"
     inkscape:window-x="0"
     inkscape:window-y="0"
     inkscape:window-maximized="1" />
  <metadata
     id="metadata5">
    <rdf:RDF>
      <cc:Work
         rdf:about="">
        <dc:format>image/svg+xml</dc:format>
        <dc:type
           rdf:resource="http://purl.org/dc/dcmitype/StillImage" />
        <dc:title></dc:title>
      </cc:Work>
    </rdf:RDF>
  </metadata>
  <g
     inkscape:label="Layer 1"
     inkscape:groupmode="layer"
     id="layer1"
     transform="translate(-4.5209962,-41.155411)">
    <path
       style="fill:#fffcfb;fill-opacity:1;stroke-width:0.20408164"
       d="m 9.8232248,210.63785 c -1.37121,-0.42269 -3.05658,-1.69561 -3.91718,-2.95855 -1.50641,-2.21068 -1.38258,5.10052 -1.38258,-81.62592 0,-86.726447 -0.12383,-79.415245 1.38258,-81.625928 0.88635,-1.30072 2.55793,-2.541469 4.00153,-2.970171 0.8907402,-0.264523 12.5966602,-0.30187 94.6158852,-0.30187 82.91071,0 93.71797,0.03522 94.63784,0.308387 2.13655,0.634487 4.05633,2.467179 4.86347,4.642838 0.39028,1.052024 0.39665,2.335103 0.39665,79.946744 0,77.61164 -0.006,78.89472 -0.39665,79.94674 -0.80714,2.17566 -2.72692,4.00835 -4.86347,4.64284 -0.92018,0.27326 -11.70895,0.30677 -94.7259,0.29417 -79.595095,-0.0121 -93.826535,-0.0571 -94.6121752,-0.29928 z M 191.8704,190.69597 v -7.60232 l -28.36728,-28.36673 -28.36729,-28.36674 -19.28411,19.28331 -19.284105,19.2833 7.219875,7.24697 c 7.79843,7.82769 7.77009,7.79127 7.72783,9.92992 -0.0328,1.66149 -0.99981,3.17356 -2.53436,3.96299 -1.16277,0.59817 -2.21243,0.68656 -3.56441,0.30013 l -1.19921,-0.34276 -23.164495,-23.14774 -23.16449,-23.14775 -20.45796,20.45872 -20.45795,20.45871 v 8.82615 8.82615 h 87.448975 87.44898 z m 0,-79.13238 V 53.604391 H 104.42142 16.972445 v 56.887359 56.88735 l 19.2347,-19.22841 c 20.66509,-20.65835 19.7846,-19.85899 21.86239,-19.84793 1.85963,0.01 1.85855,0.009 17.21885,15.35997 l 14.54042,14.53166 21.479975,-21.46381 c 19.76473,-19.74984 21.5532,-21.48299 22.39687,-21.70395 1.11358,-0.29167 2.5091,-0.18014 3.47087,0.27739 0.42325,0.20134 11.6904,11.31631 27.65277,27.27927 14.81617,14.81672 26.96158,26.93948 26.9898,26.93948 0.0282,0 0.0513,-26.08163 0.0513,-57.95918 z m -134.721935,5.71207 c -9.08072,-1.43221 -16.82702,-7.03133 -20.89037,-15.09983 -1.84128,-3.656178 -2.70987,-7.067725 -2.88378,-11.326539 -0.1954,-4.785433 0.6316,-8.687452 2.76998,-13.069474 3.3657,-6.897087 9.1513,-11.942062 16.37649,-14.280101 2.87092,-0.929017 5.41044,-1.322072 8.54835,-1.323076 10.50055,-0.0033 19.95361,5.887315 24.72993,15.410456 1.92991,3.847894 2.82877,7.741074 2.82639,12.241786 -0.002,3.373364 -0.36415,5.671723 -1.36749,8.67347 -1.44101,4.311128 -3.76548,7.962738 -7.13421,11.207398 -3.88889,3.74568 -8.2798,6.09739 -13.55947,7.26226 -1.78073,0.39288 -7.64996,0.58217 -9.41582,0.30365 z m 7.58246,-9.69196 c 6.5899,-1.30818 12.07813,-6.54465 13.90282,-13.265021 0.63134,-2.325278 0.63238,-6.647111 0.002,-8.979593 -1.73541,-6.422831 -6.83854,-11.523031 -13.19401,-13.18646 -1.96196,-0.513504 -6.0517,-0.614914 -7.95919,-0.197359 -3.75851,0.822751 -7.13548,2.731735 -9.72077,5.495096 -3.26635,3.491339 -4.87106,7.562054 -4.87106,12.356575 0,7.14723 3.98472,13.422632 10.43689,16.436712 3.65453,1.70718 7.36019,2.14265 11.40322,1.34005 z"
       id="path839"
       inkscape:connector-curvature="0" />
    <path
       style="fill:#ffffff;fill-opacity:1;stroke-width:0.20408164"
       d="m 264.79835,197.27437 c -1.37121,-0.42269 -3.05658,-1.69561 -3.91718,-2.95855 -1.50641,-2.21068 -1.38258,5.10052 -1.38258,-81.62592 0,-86.726443 -0.12383,-79.415241 1.38258,-81.625924 0.88635,-1.30072 2.55793,-2.541469 4.00153,-2.970171 0.89074,-0.264523 12.59666,-0.30187 94.61589,-0.30187 82.91071,0 93.71797,0.03522 94.63784,0.308387 2.13655,0.634487 4.05633,2.467179 4.86347,4.642838 0.39028,1.052024 0.39665,2.335103 0.39665,79.94674 0,77.61164 -0.006,78.89472 -0.39665,79.94674 -0.80714,2.17566 -2.72692,4.00835 -4.86347,4.64284 -0.92018,0.27326 -11.70895,0.30677 -94.7259,0.29417 -79.5951,-0.0121 -93.82654,-0.0571 -94.61218,-0.29928 z m 182.04718,-19.94188 v -7.60232 l -28.36728,-28.36673 -28.36729,-28.36674 -19.28411,19.28331 -19.28411,19.2833 7.21988,7.24697 c 7.79843,7.82769 7.77009,7.79127 7.72783,9.92992 -0.0328,1.66149 -0.99981,3.17356 -2.53436,3.96299 -1.16277,0.59817 -2.21243,0.68656 -3.56441,0.30013 l -1.19921,-0.34276 -23.1645,-23.14774 -23.16449,-23.14775 -20.45796,20.45872 -20.45795,20.45871 v 8.82615 8.82615 h 87.44898 87.44898 z m 0,-79.132379 V 40.240915 h -87.44898 -87.44898 v 56.887356 56.887349 l 19.2347,-19.22841 c 20.66509,-20.65835 19.7846,-19.85899 21.86239,-19.84793 1.85963,0.01 1.85855,0.009 17.21885,15.35997 l 14.54042,14.53166 21.47998,-21.46381 c 19.76473,-19.74984 21.5532,-21.48299 22.39687,-21.70395 1.11358,-0.29167 2.5091,-0.18014 3.47087,0.27739 0.42325,0.20134 11.6904,11.31631 27.65277,27.27927 14.81617,14.81672 26.96158,26.93948 26.9898,26.93948 0.0282,0 0.0513,-26.08163 0.0513,-57.959179 z m -134.72194,5.712069 c -9.08072,-1.43221 -16.82702,-7.031329 -20.89037,-15.09983 -1.84128,-3.65617 -2.70987,-7.067721 -2.88378,-11.326535 -0.1954,-4.785433 0.6316,-8.687452 2.76998,-13.069474 3.3657,-6.897087 9.1513,-11.942062 16.37649,-14.280101 2.87092,-0.929017 5.41044,-1.322072 8.54835,-1.323076 10.50055,-0.0033 19.95361,5.887315 24.72993,15.410456 1.92991,3.847894 2.82877,7.741074 2.82639,12.241786 -0.002,3.373364 -0.36415,5.671723 -1.36749,8.673474 -1.44101,4.31112 -3.76548,7.96273 -7.13421,11.207391 -3.88889,3.745679 -8.2798,6.097389 -13.55947,7.262259 -1.78073,0.39288 -7.64996,0.58217 -9.41582,0.30365 z m 7.58246,-9.691959 c 6.5899,-1.308181 12.07813,-6.544641 13.90282,-13.265018 0.63134,-2.325278 0.63238,-6.647111 0.002,-8.979593 -1.73541,-6.422831 -6.83854,-11.523031 -13.19401,-13.18646 -1.96196,-0.513504 -6.0517,-0.614914 -7.95919,-0.197359 -3.75851,0.822751 -7.13548,2.731735 -9.72077,5.495096 -3.26635,3.491339 -4.87106,7.562054 -4.87106,12.356575 0,7.147228 3.98472,13.422628 10.43689,16.436708 3.65453,1.707181 7.36019,2.142651 11.40322,1.340051 z"
       id="path879"
       inkscape:connector-curvature="0" />
  </g>
</svg>
