<svg width="55" height="52" viewBox="0 0 55 52" fill="none" xmlns="http://www.w3.org/2000/svg">
<g clip-path="url(#clip0)">
<path d="M16.0708 9.6319C15.0349 9.90544 13.9417 9.85294 12.9359 9.48135C12.9359 9.48135 13.8849 8.04815 15.441 7.56173C16.4767 7.28727 17.5702 7.33979 18.5759 7.71229C17.9519 8.5955 17.0782 9.26499 16.0708 9.6319V9.6319Z" fill="white"/>
<path d="M13.1646 5.52903C12.5795 6.43906 12.2813 7.50862 12.3096 8.59521C13.3337 8.27576 14.2375 7.64647 14.9002 6.7914C15.4853 5.88137 15.7835 4.8118 15.7552 3.72522C14.7311 4.04467 13.8273 4.67395 13.1646 5.52903Z" fill="white"/>
<path d="M10.8751 13.4505C9.88711 13.8807 8.79326 13.9938 7.74017 13.7747C7.74017 13.7747 8.46976 12.2141 9.94033 11.499C10.9283 11.0688 12.0222 10.9556 13.0753 11.1747C12.5866 12.1428 11.8191 12.9366 10.8751 13.4505Z" fill="white"/>
<path d="M7.40641 9.83139C6.95865 10.8191 6.81845 11.9222 7.00457 12.9931C7.00457 12.9931 8.55779 12.2924 9.30163 10.8216C9.74769 9.83234 9.88781 8.72886 9.70347 7.65698C8.7381 8.12783 7.93684 8.8863 7.40641 9.83139V9.83139Z" fill="white"/>
<path d="M7.31097 18.5546C6.50578 19.2724 5.50496 19.7248 4.44107 19.8518C4.44107 19.8518 4.67192 18.1406 5.8347 16.9825C6.63877 16.2652 7.63884 15.8137 8.70175 15.6882C8.53552 16.765 8.0504 17.7649 7.31097 18.5546V18.5546Z" fill="white"/>
<path d="M2.90383 16.2126C2.78241 17.2935 2.9882 18.3864 3.49377 19.3454C4.3039 18.6227 4.84011 17.6353 5.00975 16.5537C5.17939 15.472 4.9718 14.3642 4.42285 13.4215C3.64885 14.1733 3.11894 15.1469 2.90383 16.2126V16.2126Z" fill="white"/>
<path d="M5.09598 25.3041C4.49157 26.2017 3.63281 26.8914 2.63362 27.2816C2.63362 27.2816 2.42558 25.5675 3.28341 24.1604C3.89027 23.2666 4.74991 22.5811 5.74861 22.1945C5.84588 23.2742 5.6183 24.3585 5.09598 25.3041V25.3041Z" fill="white"/>
<path d="M0.255803 24.143C0.400218 25.224 0.86662 26.2343 1.59243 27.0383C2.20075 26.134 2.479 25.0421 2.37908 23.9515C2.27917 22.8609 1.80738 21.84 1.04524 21.0652C1.04524 21.0652 0.113306 22.4839 0.255803 24.143Z" fill="white"/>
<path d="M5.41073 32.0068C5.15024 33.0618 4.57963 34.0111 3.77486 34.7284C3.26756 33.7626 3.10811 32.6471 3.32404 31.5745C3.53998 30.502 4.11774 29.5397 4.95759 28.8538C4.95759 28.8538 5.73562 30.3854 5.41073 32.0068Z" fill="white"/>
<path d="M0.471069 32.6178C0.97684 33.5768 1.75822 34.3565 2.71113 34.853C2.92678 33.7834 2.81643 32.6724 2.39478 31.6681C1.8905 30.7089 1.10996 29.9291 0.157575 29.4329C-0.0598866 30.5021 0.0494959 31.6134 0.471069 32.6178V32.6178Z" fill="white"/>
<path d="M7.71487 39.2773C7.80891 40.9306 6.81713 42.3319 6.81713 42.3319C6.08179 41.53 5.64611 40.4917 5.58572 39.3974C5.52533 38.3031 5.84405 37.2219 6.48654 36.3414C7.17936 37.171 7.60773 38.1948 7.71487 39.2773V39.2773Z" fill="white"/>
<path d="M3.09764 41.1449C3.8251 41.9389 4.77184 42.491 5.81364 42.7286C5.75472 41.6421 5.37095 40.5997 4.71356 39.7406C3.98472 38.9439 3.03441 38.3915 1.98901 38.1569C2.0504 39.2443 2.43719 40.2868 3.09764 41.1449V41.1449Z" fill="white"/>
<path d="M12.2235 44.0718C13.0044 45.5195 12.7023 47.2248 12.7023 47.2248C11.7001 46.8208 10.8686 46.0734 10.3517 45.1121C9.83486 44.1508 9.66527 43.0361 9.87231 41.9611C10.8488 42.4058 11.6689 43.142 12.2235 44.0718V44.0718Z" fill="white"/>
<path d="M8.84554 47.7807C9.84169 48.1845 10.9355 48.2694 11.9805 48.0239C11.9805 48.0239 11.211 46.4836 9.72617 45.8061C8.7294 45.4047 7.636 45.3209 6.59122 45.5658C7.10384 46.5195 7.89014 47.2921 8.84554 47.7807V47.7807Z" fill="white"/>
<path d="M18.0668 47.28C18.8608 48.0098 19.4166 48.9684 19.6599 50.0277C18.5906 49.9805 17.5608 49.6039 16.7074 48.9478C15.9133 48.218 15.3575 47.2594 15.1142 46.2001C16.1835 46.2473 17.2133 46.6239 18.0668 47.28V47.28Z" fill="white"/>
<path d="M16.2685 51.9965C17.3393 51.9944 18.3841 51.6612 19.2638 51.0411C18.4383 50.3471 17.4244 49.9249 16.3569 49.8308C15.2854 49.8313 14.2396 50.1636 13.3587 50.7834C13.3587 50.7834 14.6469 51.9242 16.2685 51.9965Z" fill="white"/>
<path d="M20.2425 5.19006C19.3028 5.71116 18.2292 5.92929 17.1645 5.81546C17.5589 4.80498 18.2468 3.94048 19.1367 3.33703C20.0764 2.8158 21.1497 2.59671 22.2147 2.70875C22.2147 2.70875 21.6361 4.33303 20.2425 5.19006Z" fill="white"/>
<path d="M38.0149 9.63166C39.0508 9.9052 40.144 9.8527 41.1499 9.48111C41.1499 9.48111 40.2008 8.0479 38.6448 7.56149C37.609 7.28703 36.5155 7.33955 35.5098 7.71205C36.1339 8.59525 37.0076 9.26474 38.0149 9.63166V9.63166Z" fill="white"/>
<path d="M40.9227 5.52878C41.5078 6.43882 41.8061 7.50838 41.7777 8.59496C40.734 8.31931 39.8181 7.68163 39.1883 6.79229C38.5586 5.90294 38.2547 4.81791 38.3293 3.72498C39.3544 4.0439 40.2592 4.67323 40.9227 5.52878Z" fill="white"/>
<path d="M43.2112 13.4506C44.1992 13.8808 45.2931 13.994 46.3462 13.7749C46.3462 13.7749 45.6166 12.2143 44.146 11.4991C43.158 11.0689 42.0642 10.9557 41.0111 11.1748C41.4998 12.1429 42.2673 12.9367 43.2112 13.4506Z" fill="white"/>
<path d="M46.6827 9.83163C47.1286 10.8199 47.2678 11.9227 47.0817 12.9934C47.0817 12.9934 45.5285 12.2927 44.7846 10.8218C44.3386 9.83258 44.1984 8.72911 44.3828 7.65723C45.3487 8.12836 46.1508 8.88669 46.6827 9.83163Z" fill="white"/>
<path d="M46.7775 18.5549C47.5827 19.2726 48.5835 19.725 49.6474 19.852C49.6474 19.852 49.4308 18.1379 48.2537 16.9914C47.4497 16.2741 46.4496 15.8226 45.3867 15.6971C45.5546 16.7709 46.0396 17.7674 46.7775 18.5549V18.5549Z" fill="white"/>
<path d="M51.1876 16.2129C51.309 17.2938 51.1032 18.3866 50.5976 19.3456C49.7875 18.623 49.2513 17.6355 49.0816 16.5539C48.912 15.4723 49.1196 14.3644 49.6686 13.4218C50.4425 14.1735 50.9725 15.1472 51.1876 16.2129V16.2129Z" fill="white"/>
<path d="M48.9879 25.3044C49.5923 26.202 50.4511 26.8917 51.4503 27.2819C51.4503 27.2819 51.6583 25.5679 50.8005 24.1608C50.1953 23.2627 49.3355 22.573 48.3353 22.1832C48.2357 23.2668 48.4633 24.3555 48.9879 25.3044V25.3044Z" fill="white"/>
<path d="M53.8307 24.1433C53.6862 25.2244 53.2198 26.2347 52.494 27.0387C51.8857 26.1343 51.6075 25.0425 51.7074 23.9519C51.8073 22.8612 52.2791 21.8403 53.0412 21.0656C53.0412 21.0656 53.9732 22.4843 53.8307 24.1433Z" fill="white"/>
<path d="M48.6778 32.0067C48.9383 33.0617 49.5089 34.011 50.3137 34.7283C50.8226 33.7629 50.983 32.6469 50.767 31.5739C50.551 30.5009 49.9722 29.5385 49.1309 28.8536C49.1309 28.8536 48.3529 30.3853 48.6778 32.0067Z" fill="white"/>
<path d="M53.6156 32.6178C53.1113 33.5769 52.3307 34.3567 51.3783 34.853C51.1171 33.789 51.2306 32.6658 51.6991 31.678C52.1675 30.6901 52.9615 29.9 53.9433 29.4445C54.1546 30.5115 54.0403 31.6186 53.6156 32.6178V32.6178Z" fill="white"/>
<path d="M46.3745 39.2773C46.2804 40.9306 47.2722 42.3319 47.2722 42.3319C48.0076 41.5299 48.4432 40.4917 48.5036 39.3974C48.564 38.3031 48.2453 37.2219 47.6028 36.3414C46.91 37.171 46.4816 38.1948 46.3745 39.2773V39.2773Z" fill="white"/>
<path d="M50.9937 41.1449C50.264 41.9404 49.314 42.4926 48.2692 42.7286C48.2816 41.633 48.6707 40.5762 49.3691 39.7413C50.0676 38.9064 51.0314 38.3459 52.0938 38.1569C52.0349 39.2434 51.6511 40.2858 50.9937 41.1449V41.1449Z" fill="white"/>
<path d="M41.8658 44.0721C41.0849 45.5198 41.387 47.2252 41.387 47.2252C42.3892 46.8212 43.2208 46.0738 43.7376 45.1125C44.2545 44.1511 44.4241 43.0364 44.217 41.9614C43.24 42.4053 42.4197 43.1417 41.8658 44.0721V44.0721Z" fill="white"/>
<path d="M45.2417 47.7806C44.2456 48.1844 43.1517 48.2693 42.1068 48.0238C42.1068 48.0238 42.8763 46.4835 44.3639 45.806C45.8516 45.1285 47.4989 45.5657 47.4989 45.5657C46.9855 46.5198 46.1982 47.2925 45.2417 47.7806V47.7806Z" fill="white"/>
<path d="M36.0194 47.2802C35.2254 48.0099 34.6696 48.9685 34.4263 50.0279C35.5069 50.0319 36.5547 49.6512 37.3877 48.952C38.2208 48.2527 38.7864 47.2791 38.9862 46.2002C37.912 46.2445 36.8768 46.6213 36.0194 47.2802V47.2802Z" fill="white"/>
<path d="M37.8198 51.9965C36.749 51.9944 35.7043 51.6611 34.8245 51.041C35.6239 50.3058 36.6511 49.8776 37.7284 49.8305C38.8057 49.7835 39.8653 50.1205 40.7239 50.7833C40.7239 50.7833 39.4414 51.9241 37.8198 51.9965Z" fill="white"/>
<path d="M33.843 5.1905C34.7827 5.7116 35.8562 5.92973 36.9209 5.81589C36.5678 4.78104 35.8698 3.90412 34.9476 3.33681C34.0255 2.7695 32.9371 2.54749 31.8708 2.70918C31.8708 2.70918 32.4494 4.33347 33.843 5.1905Z" fill="white"/>
</g>
<path d="M26.9176 0L27.7165 1.63576L29.503 1.89807L28.2103 3.17133L28.5155 4.9692L26.9176 4.12036L25.3197 4.9692L25.6249 3.17133L24.3322 1.89807L26.1187 1.63576L26.9176 0Z" fill="white"/>
<path fill-rule="evenodd" clip-rule="evenodd" d="M24.0067 31.1173C25.8033 31.1173 27.3469 30.7536 28.6375 30.0263C29.9281 29.2989 31.0131 28.0625 31.8924 26.3169L31.319 25.8808C30.4968 27.2387 29.5649 28.2569 28.5234 28.9356C27.4818 29.6142 26.2632 29.9536 24.8675 29.9539C23.3191 29.9539 22.0288 29.5418 20.9965 28.7174C19.9563 27.8822 19.1668 26.7687 18.717 25.5025C18.2208 24.1334 17.973 22.6845 17.9858 21.2258C17.9858 17.9673 18.6166 15.601 19.8782 14.1268C21.1398 12.6527 22.8029 11.9157 24.8675 11.9157C26.4732 11.9157 27.7635 12.3666 28.7384 13.2686C29.7132 14.1705 30.3823 15.5621 30.7455 17.4435H31.319C31.33 16.5256 31.2917 15.6079 31.2043 14.6942C31.1275 14.0251 30.9267 13.4868 30.6022 13.0794C30.0475 12.4008 29.192 11.8432 28.0359 11.4066C26.8797 10.97 25.5368 10.7518 24.0072 10.752C22.4157 10.7474 20.8606 11.2345 19.5485 12.1485C18.1813 13.0793 17.1011 14.3495 16.3078 15.9593C15.5086 17.5952 15.1009 19.3994 15.1179 21.2252C15.1179 23.0681 15.4811 24.741 16.2075 26.2439C16.8957 27.7038 17.9735 28.9387 19.3186 29.8084C20.6663 30.6813 22.2289 31.1177 24.0067 31.1176V31.1173Z" fill="white"/>
<path fill-rule="evenodd" clip-rule="evenodd" d="M29.6282 44.5004C31.406 44.5004 32.9687 44.064 34.3164 43.1912C35.6612 42.3216 36.739 41.0869 37.4274 39.6273C38.1537 38.1243 38.5169 36.4515 38.517 34.6086C38.5339 32.7827 38.1262 30.9786 37.3271 29.3426C36.5336 27.7329 35.4536 26.4625 34.0869 25.5313C32.7748 24.6174 31.2197 24.1303 29.6282 24.1348C28.0987 24.1348 26.7559 24.353 25.5996 24.7894C24.4434 25.2258 23.588 25.7834 23.0334 26.4622C22.708 26.8696 22.5073 27.4079 22.4312 28.077C22.3436 28.9907 22.3053 29.9085 22.3165 30.8263H22.8899C23.2529 28.9452 23.9219 27.5536 24.8971 26.6514C25.8722 25.7492 27.1625 25.2981 28.7681 25.2984C30.7179 25.2984 32.3141 25.9675 33.5565 27.3059C34.7989 28.6442 35.4966 30.7874 35.6497 33.7356H26.1587V34.8994H35.6497C35.6062 36.3239 35.325 37.7306 34.8181 39.0598C34.3587 40.2886 33.569 41.362 32.5386 42.1583C31.5158 42.9438 30.2589 43.3366 28.7681 43.3367C27.3725 43.3367 26.1539 42.9972 25.1122 42.3183C24.0705 41.6394 23.1386 40.6211 22.3165 39.2636L21.743 39.6997C22.622 41.4453 23.7068 42.6817 24.9975 43.4091C26.2882 44.1364 27.8318 44.5001 29.6282 44.5001V44.5004Z" fill="white"/>
<defs>
<clipPath id="clip0">
<rect width="53.9894" height="49.3166" fill="white" transform="translate(0.0492554 2.68335)"/>
</clipPath>
</defs>
</svg>
